<?xml version="1.0" encoding="UTF-8"?>
<svg id="Capa_1" data-name="Capa 1" xmlns="http://www.w3.org/2000/svg" xmlns:xlink="http://www.w3.org/1999/xlink" viewBox="0 0 2472.42 390.76">
  <defs>
    <style>
      .cls-1 {
        fill-rule: evenodd;
      }

      .cls-1, .cls-2 {
        fill: #fff;
      }

      .cls-3 {
        fill: url(#Degradado_sin_nombre_7);
      }

      .cls-4 {
        fill: #091945;
      }
    </style>
    <linearGradient id="Degradado_sin_nombre_7" data-name="Degradado sin nombre 7" x1="281.55" y1="21.16" x2="239.65" y2="362.33" gradientUnits="userSpaceOnUse">
      <stop offset="0" stop-color="#091945"/>
      <stop offset=".19" stop-color="#fff"/>
      <stop offset=".84" stop-color="#091945"/>
      <stop offset="1" stop-color="#fff"/>
    </linearGradient>
  </defs>
  <g>
    <path class="cls-3" d="M520.33,0H178.31s-98.92,9.25-112.29,106.12L0,390.56h351.28s81.44,8.23,99.95-81.44L520.33,0Z"/>
    <path class="cls-2" d="M510.05,11.31H181.4s-83.5,7.2-105.09,95.84L12.34,383.36h314.26s99.95,9.25,115.38-74.24L510.05,11.31Z"/>
    <g>
      <path class="cls-4" d="M292.04,309.53c.21-1.03.41-1.85.62-2.67,9.46-38.46,18.92-77.12,28.38-115.58,9.46-38.66,18.92-77.33,28.38-115.99,2.06-8.23,5.76-15.84,10.28-22.83,10.28-15.42,23.03-27.97,39.69-36.81.62-.21,1.23-.62,1.85-.82,3.91-2.06,7.82-5.55,12.34-4.53,23.03-.21,46.07-.21,69.31-.41,8.64,0,13.52-.88,22.16-.88.82,0,5.14.68,6.17.88-.62,2.88-1.18,7.4-2,9.87-1.44,5.76-2.88,11.52-4.32,17.28-.41,1.85-1.23,2.67-3.08,3.29-5.76,1.65-11.52,2.47-17.48,2.47h-43.81c-14.4.21-27.35,4.73-38.66,13.57-11.93,9.46-19.33,22.01-22.83,36.81-4.32,18.51-9.05,36.81-13.37,55.12-10.49,42.98-20.98,85.97-31.47,128.75-2.47,10.08-4.94,20.36-7.4,30.44-.21.62-.41,1.23-.62,1.85-11.31.21-22.62.21-34.14.21Z"/>
      <path class="cls-4" d="M284.85,309.32c-1.23,0-2.06.21-2.88.21-6.58,0-13.16.21-19.74,0-8.84,0-15.42-4.94-17.89-13.37-10.49-34.96-20.98-69.93-31.47-104.89-.41-1.65-.41-3.08-.21-4.52,5.14-20.77,10.08-41.34,15.01-62.11.21-.62.41-1.44.62-2.06h.41s.21,0,.21.21c.21.41.41.82.41,1.23,18.72,61.49,37.02,123.19,55.53,185.3Z"/>
      <path class="cls-4" d="M289.16,281.14c-18.51-62.32-37.02-124.63-55.74-187.15,1.03,0,1.65-.21,2.26-.21h23.65c1.65,0,3.5.21,5.14.62,4.11.82,6.58,3.29,7.82,7.4,4.94,16.66,9.87,33.32,14.81,49.98,5.96,19.74,11.72,39.69,17.69,59.44.62,2.06.62,3.91.21,5.96-4.94,20.77-9.87,41.54-14.81,62.11-.21.62-.41,1.23-.62,1.85,0,0-.21,0-.41,0Z"/>
      <g>
        <path class="cls-4" d="M500.55,53.41c-2.47,0-22.79.68-25.05.88-10.9,0-21.8-.21-32.7,0-9.67.21-18.72,2.47-27.15,7.2-6.58,3.7-11.52,9.05-15.42,15.42-4.73,7.61-8.02,16.04-10.49,24.68-3.5,12.34-6.79,24.89-9.87,37.43-13.78,55.12-27.56,110.24-41.34,165.35-.41,1.65-.82,3.08-1.23,4.94.82,0,1.44.21,2.06.21h21.8c5.55,0,9.67-2.47,12.13-7.2,1.44-2.67,2.47-5.55,3.08-8.64,8.23-33.52,16.25-66.84,24.27-100.36,5.76-24.06,11.52-48.13,17.28-71.98,1.23-4.94,2.67-9.67,4.94-14.19,4.32-9.46,11.93-14.6,22.01-16.66,8.23-1.65,16.45-1.85,24.68-1.23,7.4.41,14.6-.21,21.59-2.67.41-.21,1.2.15,1.81-.06,0,.62-.37.68-.58,1.29l.41-1.23"/>
        <path class="cls-4" d="M138.62,311.58c-7.2,25.91-23.65,42.37-50.39,47.92-5.96,1.23-12.13,1.03-18.3,1.03-12.55.21-25.3.21-37.84.21-4.52,0-9.05.62-13.37,1.85-.41,0-.82.21-1.23.21l-7.2,21.39,151.37-1.03h-31.26c-1.03,0-1.85,0-3.08-.41.62-.41,1.23-1.03,1.85-1.44,15.01-10.69,26.74-24.27,35.17-40.93,3.08-6.17,4.52-12.96,6.17-19.74,15.01-61.49,30.23-123.19,45.25-184.69,3.29-13.37,6.58-26.74,9.87-40.1.21-.62.21-1.44.41-2.26h-34.14c-1.03,4.32-2.06,8.43-3.08,12.75-13.57,55.12-26.94,110.44-40.52,165.56-3.29,13.37-5.96,26.74-9.67,39.69Z"/>
        <path class="cls-4" d="M24.47,349.22c16.04-.21,31.88-.21,47.92-.21,8.02,0,15.84-1.65,23.45-4.52,7.82-3.08,13.99-8.02,18.92-14.6,5.14-6.99,8.43-15.01,11.31-23.24,3.91-10.9,6.58-22.21,9.25-33.52,13.37-53.68,26.94-107.56,40.31-161.24,1.23-5.14,2.67-10.28,3.91-15.63.21-.62.21-1.23.41-2.06-.41-.21-.82-.21-1.03-.21-5.76,0-11.31,0-17.07.21-11.11.41-18.92,6.99-21.39,17.69-5.14,20.98-10.28,41.96-15.42,62.93-7.2,29.62-14.4,59.23-21.59,88.85-1.85,7.82-3.7,15.63-5.76,23.45-.82,3.29-2.26,6.38-3.5,9.46-4.52,9.67-12.34,14.6-22.42,16.66-7.2,1.44-14.6,1.65-22.01,1.23-6.58-.41-13.16-.41-19.74,1.23-.41.21-1.03.21-1.44.41-.21,0-.41.21-.62.21l-1.85,5.55c-.41,1.65-.82,3.29-1.23,4.94-1.44,5.96-2.88,11.72-4.52,17.69"/>
      </g>
    </g>
  </g>
  <g>
    <g>
      <g>
        <path class="cls-1" d="M632.89,121.68l98.34.13-27.52,117.09-89.34-.05c-15.56,0-27.62-1.16-36.09-3.42-8.53-2.28-15.84-6.23-21.88-11.97-17.29-15.98-21.32-43.43-12.2-82.43,6.06-25.62,16-46.85,29.95-63.66,10.31-12.4,22.55-21.51,36.62-27.17,14.11-5.65,31.36-8.55,51.92-8.55l87.33.11-8.2,35.08h-82.55c-17.77-.06-31.64,3.78-41.53,11.43-11.57,9.09-20.11,25.34-25.66,48.73-2.81,12.04-4.13,22.89-3.88,32.52.22,9.7,1.91,16.85,5.11,21.64,2.84,4.3,7.41,7.52,13.59,9.44,6.09,2.11,14.13,3.13,24.05,3.13l38.49.03,11.04-46.93-55.83-.02,8.23-35.15h0Z"/>
        <polygon class="cls-1" points="1552.85 43.44 1507.13 238.59 1547.33 238.59 1579.83 98.07 1628.15 238.59 1680.03 238.59 1726.14 41.8 1685.89 41.78 1651.49 188.85 1606.81 43.44 1552.85 43.44"/>
        <path class="cls-2" d="M1778.17,41.78l-27.39,116.65c-2.12,9.25-3.13,16.42-2.75,21.59.4,4.98,1.95,9.44,4.88,12.93,6.44,7.89,16.94,11.91,31.48,11.91,9.35,0,17.9-1.54,25.52-4.68,7.66-3.11,13.48-7.32,17.36-12.67,4.09-5.44,7.74-15.17,10.98-29.08l27.37-116.65,41.63.07-26.96,114.65c-3.48,14.89-8.01,27.29-13.46,37.07-5.43,9.74-12.22,17.59-20.39,23.59-18.51,13.26-41.9,19.97-70.33,19.97-30.08,0-50.64-6.53-61.4-19.6-5.75-6.86-8.95-14.48-9.71-22.86-.89-8.41.55-20.12,4.06-35.2l27.6-117.69,40.52.02,1-.02Z"/>
        <path class="cls-2" d="M987.75,41.95l-27.14,116.84c-2.14,9.3-3.05,16.64-2.72,21.75.27,5.18,1.91,9.56,4.8,13.27,6.47,8,17.02,11.99,31.62,11.99,9.4,0,17.91-1.6,25.61-4.8,7.73-3.1,13.51-7.35,17.5-12.81,4.08-5.5,7.71-15.33,10.98-29.4l27.12-116.84h41.58l-26.63,114.79c-3.5,15.21-7.99,27.73-13.46,37.63-5.44,9.86-12.32,17.85-20.43,23.81-18.53,13.54-42.08,20.28-70.6,20.28-30.17,0-50.75-6.61-61.6-19.81-5.68-6.98-8.94-14.71-9.74-23.17-.8-8.48.58-20.36,4.12-35.65l27.32-117.88h41.67Z"/>
        <path class="cls-1" d="M2252.81,42.44l-9.92,34.44h-73.52s-35,.9-47.57,42.43l109.46-.43-8.96,37.82-111.27-.21s-14.35,41.48,45.73,43.27h55.63l-9.86,37.12h-74.39s-65.47,0-66.41-59.21c0,0,4.5-73.37,39.53-103.47,0,0,34.93-36.22,88.74-32.68l62.82.92Z"/>
        <path class="cls-2" d="M1418.33,41.85s-92.71-5.07-120.2,57.55c0,0-61.79,135.35,44.68,138.82,0,0,103.01,8.41,132.16-88.06,0,0,34.36-103.2-56.64-108.31ZM1432.08,140.02s-20.64,74.46-75.54,60.94c0,0-46.41-5.07-18.91-76.17,0,0,17.15-57.5,65.3-50.73,0,0,48.06-1.71,29.15,65.96Z"/>
        <path class="cls-1" d="M865.65,41.78l-101.63.1-51.99,196.37h44.15l19.36-73.75h45.35s34.63-.82,31.1,35.05l-4.46,38.82h47.1l4.43-40.62s2.69-35.86-23.08-43.78c0,0,50.63-12.24,53.29-61.34,0,0,8.64-52.13-63.62-50.86ZM882.15,102.44c-2.67,24.13-31.44,21.58-31.44,21.58h-62.06l12.24-45.61h66.38c20.11,1.61,14.88,24.04,14.88,24.04Z"/>
        <path class="cls-2" d="M1241.93,41.61l-115.27.24-50.76,196.74,44.46-.13,18.14-67.16h82.63s42.64,2.45,62.6-44.73c0,0,35.33-84.1-41.8-84.96ZM1242.85,101.89c-2.69,32.17-25.41,31.34-25.41,31.34l-71.71,1.71,15.42-58.13h61.74c27.2.88,19.96,25.08,19.96,25.08Z"/>
        <polygon class="cls-2" points="1921.29 41.78 2098.76 41.78 2088.59 79.04 2021.52 79.04 1980.29 238.35 1937.9 238.37 1976.97 79.04 1912.81 79.04 1921.29 41.78"/>
        <path class="cls-1" d="M2432.36,40.03l-11.24,38.12h-70.99s-44.44-4.47-57.91,34.72l-15.13,49.53s-13.61,45.17,48.79,40.74h65.34l-11.46,35.46-97.18.72s-64.47,1.48-55.72-72.6c0,0,7.21-39.06,18.65-60.72,0,0,20.85-59.86,96.84-64.87l90.02-1.1Z"/>
      </g>
      <g>
        <path class="cls-2" d="M2451.55,51.35c-.08-2.07-.16-4.57-.16-7.1h-.06c-.58,2.21-1.35,4.67-2.02,6.69l-2.18,6.76h-3.17l-1.92-6.69c-.6-2.02-1.15-4.46-1.62-6.75h-.02c-.08,2.33-.22,5-.29,7.16l-.38,6.58h-3.74l1.13-17.31h5.43l1.73,5.78c.58,2,1.12,4.15,1.52,6.18h.11c.49-2,1.1-4.29,1.7-6.2l1.89-5.76h5.31l.95,17.31h-3.92l-.29-6.63Z"/>
        <path class="cls-2" d="M2458.88,40.95c1.31-.23,3.23-.4,5.39-.4,2.67,0,4.52.4,5.79,1.39,1.1.81,1.69,2.04,1.69,3.62,0,2.18-1.63,3.69-3.18,4.24v.07c1.25.49,1.95,1.62,2.42,3.2.54,1.97,1.08,4.23,1.42,4.91h-4.16c-.25-.52-.72-1.91-1.21-4.04-.52-2.18-1.28-2.73-2.95-2.78h-1.22v6.82h-4.01v-17.04ZM2462.89,48.35h1.6c2.02,0,3.25-.97,3.25-2.49s-1.13-2.37-2.98-2.37c-.99,0-1.56.05-1.86.12v4.74Z"/>
      </g>
    </g>
    <g>
      <path class="cls-1" d="M1815.13,261.38l-15.34.03-42.32,62.65,17.02.04,10.43-14.87h22.54l3.31,14.83,14.47-.02-10.11-62.67ZM1789.9,297.45l12.67-18.99,3.81,19.63-16.48-.64Z"/>
      <path class="cls-1" d="M2419.47,261.38l-15.38.03-42.29,62.65,17.02.04,10.42-14.87h22.57l3.27,14.83,14.44-.02-10.06-62.67ZM2394.23,297.45l12.68-18.99,3.81,19.63-16.49-.64Z"/>
      <path class="cls-1" d="M1727.63,261.49l13.68.2-9.32,38.1s-3.77,13.49,9.13,12.9h17.07l-2.58,11.11-22.02.19s-19.05.82-16.1-19.25l10.15-43.26Z"/>
      <path class="cls-2" d="M2051.54,260.53l-3.35,12.33h-21.31s-13.35-1.46-17.4,11.23l-4.55,16.01s-4.09,14.58,14.64,13.17h19.65l-3.47,11.46-29.18.23s-19.37.47-16.74-23.48c0,0,2.16-12.64,5.61-19.64,0,0,6.25-19.36,29.08-20.98l27.02-.33Z"/>
      <path class="cls-2" d="M2351.81,260.53l-3.38,12.33h-21.29s-13.37-1.46-17.42,11.23l-4.55,16.01s-4.06,14.58,14.62,13.17h19.65l-3.44,11.46-29.19.23s-19.35.47-16.74-23.48c0,0,2.15-12.64,5.62-19.64,0,0,6.25-19.36,29.06-20.98l27.06-.33Z"/>
      <path class="cls-2" d="M1932.93,259.83l-3.33,11.73h-24.7s-11.72.31-15.94,14.45l36.73.9-3.01,12.35-37.32-.6s-4.82,14.16,15.36,14.75h18.64l-3.28,12.65h-24.99s-21.97,0-22.29-20.17c0,0,1.5-24.98,13.25-35.22,0,0,11.75-12.34,29.8-11.13l21.1.3Z"/>
      <path class="cls-2" d="M2113.73,259.83l-3.31,11.73h-24.67s-11.73.31-15.94,14.45l36.7.9-3,12.34-37.3-.59s-4.85,14.16,15.32,14.75h18.67l-3.31,12.65h-24.97s-21.98,0-22.3-20.17c0,0,1.51-24.98,13.28-35.22,0,0,11.73-12.34,29.77-11.13l21.06.3Z"/>
      <path class="cls-2" d="M2223.46,259.83l-3.32,11.73h-24.69s-11.75.31-15.97,14.45l36.73.9-3.01,12.34-37.33-.59s-4.82,14.16,15.34,14.75h18.71l-3.34,12.65h-24.98s-21.97,0-22.29-20.17c0,0,1.51-24.98,13.24-35.22,0,0,11.74-12.34,29.8-11.13l21.09.3Z"/>
      <path class="cls-2" d="M2120.36,259.61l14.54.23-9.88,40.36s-4.01,14.31,9.67,13.68h18.09l-2.76,11.78-23.32.2s-20.21.85-17.04-20.39l10.71-45.86Z"/>
      <polygon class="cls-2" points="1939.72 260.36 1957.02 260.36 1964.54 280.61 1982.73 260.16 1999.59 260.16 1970.6 291.45 1984.79 325.34 1967.69 325.33 1958.93 303.76 1939.62 325.34 1922.75 325.34 1952.86 291.87 1939.72 260.36"/>
      <polygon class="cls-1" points="2359.91 260.88 2373.36 260.82 2357.23 324.61 2344.09 324.66 2359.54 262.54 2359.91 260.88"/>
      <path class="cls-1" d="M1465.87,261.18l-15.45.05-42.63,63.06,17.14.03,10.51-14.97h22.68l3.32,14.94,14.54-.02-10.12-63.09ZM1440.44,297.48l12.76-19.13,3.83,19.77-16.59-.64Z"/>
      <path class="cls-1" d="M1376.53,261.05l13.91.2-9.47,38.64s-3.81,13.68,9.24,13.09h17.34l-2.65,11.27-22.33.18s-19.32.82-16.29-19.5l10.24-43.88Z"/>
      <path class="cls-1" d="M1332.52,260.81l-8.76,37.97c-.72,3.04-.98,5.4-.91,7.07.11,1.68.64,3.11,1.55,4.3,2.11,2.6,5.54,3.9,10.25,3.9,3.04,0,5.8-.5,8.29-1.53,2.5-1.02,4.38-2.41,5.65-4.18,1.31-1.78,2.47-4.99,3.58-9.56l8.74-37.97h13.48l-8.62,37.32c-1.15,4.93-2.61,8.99-4.39,12.2-1.73,3.23-3.94,5.8-6.58,7.77-5.99,4.36-13.6,6.58-22.81,6.58-9.79,0-16.44-2.16-19.94-6.45-1.84-2.27-2.89-4.77-3.15-7.53-.3-2.74.18-6.61,1.33-11.6l8.84-38.29h13.46Z"/>
      <polygon class="cls-1" points="1245.75 260.93 1266.32 260.93 1269.35 309.11 1298.17 260.93 1318.23 261 1302.07 324.52 1289.57 324.44 1300.91 278.65 1272.44 324.44 1259.3 324.44 1255.04 277.91 1242.53 324.55 1229.52 324.55 1245.75 260.93"/>
      <path class="cls-1" d="M1219.44,261.22l-32.52-.29-15.99,62.49,14,.86,5.7-23.4h14.57s11.12-.29,9.97,11.42l-1.42,12.26h15.13l1.44-12.84s.83-11.68-7.43-14.25c0,0,16.25-4,17.11-19.98,0,0,2.85-17.97-20.56-16.26ZM1224.59,279.53c-.85,7.97-10.25,7.13-10.25,7.13h-20.28l4-15.13h21.68c6.57.57,4.85,7.99,4.85,7.99Z"/>
      <path class="cls-1" d="M1159.19,261.17s-29.4-1.63-38.1,18.51c0,0-19.58,43.53,14.15,44.63,0,0,32.67,2.71,41.93-28.31,0,0,10.87-33.21-17.97-34.83ZM1163.55,292.75s-6.53,23.95-23.94,19.59c0,0-14.7-1.64-5.99-24.51,0,0,5.42-18.51,20.7-16.32,0,0,15.22-.56,9.23,21.24Z"/>
      <path class="cls-1" d="M1604.54,261.22s-29.34-1.62-38.03,18.46c0,0-19.56,43.48,14.13,44.57,0,0,32.59,2.71,41.84-28.25,0,0,10.86-33.14-17.94-34.77ZM1608.9,292.75s-6.54,23.9-23.92,19.56c0,0-14.67-1.64-5.97-24.46,0,0,5.43-18.49,20.63-16.3,0,0,15.21-.56,9.26,21.2Z"/>
      <polygon class="cls-1" points="2233.41 258.93 2217.79 326.58 2231.53 326.58 2242.65 277.84 2259.12 326.58 2276.83 326.58 2292.28 259.8 2278.73 258.93 2267.11 309.31 2251.84 258.93 2233.41 258.93"/>
      <polygon class="cls-1" points="1494.27 260.8 1514.89 260.8 1517.92 309.18 1546.86 260.8 1566.99 260.87 1550.76 324.66 1538.23 324.57 1549.6 278.61 1521.04 324.57 1507.88 324.57 1503.56 277.84 1491.01 324.68 1477.91 324.68 1494.27 260.8"/>
      <path class="cls-1" d="M1113.32,286.73l-2.71,11.75h-39.45l-6.3,27.33h-14.05l7.99-34.54c2.37-9.9,4.84-16.43,7.37-19.56,3.22-4.33,7.19-7.42,11.88-9.26,4.7-1.83,10.93-2.75,18.64-2.75h22.87l-2.75,11.76h-21.06c-6.55.11-10.9.63-12.98,1.62-4.09,1.49-6.77,4.89-8.08,10.1l-.8,3.55h39.42Z"/>
      <path class="cls-1" d="M1687.97,262.02l-2.65,10.79-31.01-.07s-9.29-1.03-11,6.94c0,0-2.12,7.86,7.05,6.57l21.69,1.28s11.69.98,9.2,13.95c0,0,.81,19.16-18.77,22.12h-41.02l2.49-10.68,33.03-.32s8.9.07,9.51-6.93c0,0,2.31-6.6-5.98-7.72l-23.14-1.13s-12.81-2.97-8.01-19.17c0,0,3.64-13.95,19.72-15.79l38.89.14Z"/>
    </g>
    <g>
      <path class="cls-1" d="M1815.13,261.38l-15.34.03-42.32,62.65,17.02.04,10.43-14.87h22.54l3.31,14.83,14.47-.02-10.11-62.67ZM1789.9,297.45l12.67-18.99,3.81,19.63-16.48-.64Z"/>
      <path class="cls-1" d="M2419.47,261.38l-15.38.03-42.29,62.65,17.02.04,10.42-14.87h22.57l3.27,14.83,14.44-.02-10.06-62.67ZM2394.23,297.45l12.68-18.99,3.81,19.63-16.49-.64Z"/>
      <path class="cls-1" d="M1727.63,261.49l13.68.2-9.32,38.1s-3.77,13.49,9.13,12.9h17.07l-2.58,11.11-22.02.19s-19.05.82-16.1-19.25l10.15-43.26Z"/>
      <path class="cls-2" d="M2051.54,260.53l-3.35,12.33h-21.31s-13.35-1.46-17.4,11.23l-4.55,16.01s-4.09,14.58,14.64,13.17h19.65l-3.47,11.46-29.18.23s-19.37.47-16.74-23.48c0,0,2.16-12.64,5.61-19.64,0,0,6.25-19.36,29.08-20.98l27.02-.33Z"/>
      <path class="cls-2" d="M2351.81,260.53l-3.38,12.33h-21.29s-13.37-1.46-17.42,11.23l-4.55,16.01s-4.06,14.58,14.62,13.17h19.65l-3.44,11.46-29.19.23s-19.35.47-16.74-23.48c0,0,2.15-12.64,5.62-19.64,0,0,6.25-19.36,29.06-20.98l27.06-.33Z"/>
      <path class="cls-2" d="M1932.93,259.83l-3.33,11.73h-24.7s-11.72.31-15.94,14.45l36.73.9-3.01,12.35-37.32-.6s-4.82,14.16,15.36,14.75h18.64l-3.28,12.65h-24.99s-21.97,0-22.29-20.17c0,0,1.5-24.98,13.25-35.22,0,0,11.75-12.34,29.8-11.13l21.1.3Z"/>
      <path class="cls-2" d="M2113.73,259.83l-3.31,11.73h-24.67s-11.73.31-15.94,14.45l36.7.9-3,12.34-37.3-.59s-4.85,14.16,15.32,14.75h18.67l-3.31,12.65h-24.97s-21.98,0-22.3-20.17c0,0,1.51-24.98,13.28-35.22,0,0,11.73-12.34,29.77-11.13l21.06.3Z"/>
      <path class="cls-2" d="M2223.46,259.83l-3.32,11.73h-24.69s-11.75.31-15.97,14.45l36.73.9-3.01,12.34-37.33-.59s-4.82,14.16,15.34,14.75h18.71l-3.34,12.65h-24.98s-21.97,0-22.29-20.17c0,0,1.51-24.98,13.24-35.22,0,0,11.74-12.34,29.8-11.13l21.09.3Z"/>
      <path class="cls-2" d="M2120.36,259.61l14.54.23-9.88,40.36s-4.01,14.31,9.67,13.68h18.09l-2.76,11.78-23.32.2s-20.21.85-17.04-20.39l10.71-45.86Z"/>
      <polygon class="cls-2" points="1939.72 260.36 1957.02 260.36 1964.54 280.61 1982.73 260.16 1999.59 260.16 1970.6 291.45 1984.79 325.34 1967.69 325.33 1958.93 303.76 1939.62 325.34 1922.75 325.34 1952.86 291.87 1939.72 260.36"/>
      <polygon class="cls-1" points="2359.91 260.88 2373.36 260.82 2357.23 324.61 2344.09 324.66 2359.54 262.54 2359.91 260.88"/>
      <path class="cls-1" d="M1465.87,261.18l-15.45.05-42.63,63.06,17.14.03,10.51-14.97h22.68l3.32,14.94,14.54-.02-10.12-63.09ZM1440.44,297.48l12.76-19.13,3.83,19.77-16.59-.64Z"/>
      <path class="cls-1" d="M1376.53,261.05l13.91.2-9.47,38.64s-3.81,13.68,9.24,13.09h17.34l-2.65,11.27-22.33.18s-19.32.82-16.29-19.5l10.24-43.88Z"/>
      <path class="cls-1" d="M1332.52,260.81l-8.76,37.97c-.72,3.04-.98,5.4-.91,7.07.11,1.68.64,3.11,1.55,4.3,2.11,2.6,5.54,3.9,10.25,3.9,3.04,0,5.8-.5,8.29-1.53,2.5-1.02,4.38-2.41,5.65-4.18,1.31-1.78,2.47-4.99,3.58-9.56l8.74-37.97h13.48l-8.62,37.32c-1.15,4.93-2.61,8.99-4.39,12.2-1.73,3.23-3.94,5.8-6.58,7.77-5.99,4.36-13.6,6.58-22.81,6.58-9.79,0-16.44-2.16-19.94-6.45-1.84-2.27-2.89-4.77-3.15-7.53-.3-2.74.18-6.61,1.33-11.6l8.84-38.29h13.46Z"/>
      <polygon class="cls-1" points="1245.75 260.93 1266.32 260.93 1269.35 309.11 1298.17 260.93 1318.23 261 1302.07 324.52 1289.57 324.44 1300.91 278.65 1272.44 324.44 1259.3 324.44 1255.04 277.91 1242.53 324.55 1229.52 324.55 1245.75 260.93"/>
      <path class="cls-1" d="M1219.44,261.22l-32.52-.29-15.99,62.49,14,.86,5.7-23.4h14.57s11.12-.29,9.97,11.42l-1.42,12.26h15.13l1.44-12.84s.83-11.68-7.43-14.25c0,0,16.25-4,17.11-19.98,0,0,2.85-17.97-20.56-16.26ZM1224.59,279.53c-.85,7.97-10.25,7.13-10.25,7.13h-20.28l4-15.13h21.68c6.57.57,4.85,7.99,4.85,7.99Z"/>
      <path class="cls-1" d="M1159.19,261.17s-29.4-1.63-38.1,18.51c0,0-19.58,43.53,14.15,44.63,0,0,32.67,2.71,41.93-28.31,0,0,10.87-33.21-17.97-34.83ZM1163.55,292.75s-6.53,23.95-23.94,19.59c0,0-14.7-1.64-5.99-24.51,0,0,5.42-18.51,20.7-16.32,0,0,15.22-.56,9.23,21.24Z"/>
      <path class="cls-1" d="M1604.54,261.22s-29.34-1.62-38.03,18.46c0,0-19.56,43.48,14.13,44.57,0,0,32.59,2.71,41.84-28.25,0,0,10.86-33.14-17.94-34.77ZM1608.9,292.75s-6.54,23.9-23.92,19.56c0,0-14.67-1.64-5.97-24.46,0,0,5.43-18.49,20.63-16.3,0,0,15.21-.56,9.26,21.2Z"/>
      <polygon class="cls-1" points="2233.41 258.93 2217.79 326.58 2231.53 326.58 2242.65 277.84 2259.12 326.58 2276.83 326.58 2292.28 259.8 2278.73 258.93 2267.11 309.31 2251.84 258.93 2233.41 258.93"/>
      <polygon class="cls-1" points="1494.27 260.8 1514.89 260.8 1517.92 309.18 1546.86 260.8 1566.99 260.87 1550.76 324.66 1538.23 324.57 1549.6 278.61 1521.04 324.57 1507.88 324.57 1503.56 277.84 1491.01 324.68 1477.91 324.68 1494.27 260.8"/>
      <path class="cls-1" d="M1113.32,286.73l-2.71,11.75h-39.45l-6.3,27.33h-14.05l7.99-34.54c2.37-9.9,4.84-16.43,7.37-19.56,3.22-4.33,7.19-7.42,11.88-9.26,4.7-1.83,10.93-2.75,18.64-2.75h22.87l-2.75,11.76h-21.06c-6.55.11-10.9.63-12.98,1.62-4.09,1.49-6.77,4.89-8.08,10.1l-.8,3.55h39.42Z"/>
      <path class="cls-1" d="M1687.97,262.02l-2.65,10.79-31.01-.07s-9.29-1.03-11,6.94c0,0-2.12,7.86,7.05,6.57l21.69,1.28s11.69.98,9.2,13.95c0,0,.81,19.16-18.77,22.12h-41.02l2.49-10.68,33.03-.32s8.9.07,9.51-6.93c0,0,2.31-6.6-5.98-7.72l-23.14-1.13s-12.81-2.97-8.01-19.17c0,0,3.64-13.95,19.72-15.79l38.89.14Z"/>
    </g>
  </g>
</svg>